{"title":"Creed {2015} CAM XVID MP3-MURD3R","uid":12879274,"size":1917801832,"categoryP":"video","categoryS":"movies","magnet":"?xt=urn:btih:0ae0976367606a5c43fccc97f7019de3ad251fef&amp;dn=Creed+%7B2015%7D+CAM+XVID+MP3-MURD3R+&amp;tr=udp%3A%2F%2Ftracker.leechers-paradise.org%3A6969&amp;tr=udp%3A%2F%2Fzer0day.ch%3A1337&amp;tr=udp%3A%2F%2Fopen.demonii.com%3A1337&amp;tr=udp%3A%2F%2Ftracker.coppersurfer.tk%3A6969&amp;tr=udp%3A%2F%2Fexodus.desync.com%3A6969","seeders":1,"leechers":3,"uploader":"makintos13","files":11,"time":1448990601,"description":"screen:\r\n \nhttp://imgmak.com/KRT\r\n \nhttp://imgmak.com/KRa\r\n \nhttp://imgmak.com/KRp\r\n \nhttp://imgmak.com/KRR\r\n\r\nCreed {2015} CAM XVID MP3-MURD3R\r\n\r\n...........Big props.to. 7 mile Fresh. .TY&gt;Bro&gt;  :)\r\n\r\n\r\nFormat : AVI\r\nFormat/Info : Audio Video Interleave\r\nFile size : 1.78 GiB\r\nDuration : 2h 6mn\r\nOverall bit rate : 2 025 Kbps\r\nWriting library : VirtualDub build 35491/release\r\n\r\nVideo\r\nID : 0\r\nFormat : MPEG-4 Visual\r\nFormat profile : Advanced   \r\nFormat settings, BVOP : 2\r\nFormat settings, QPel : No\r\nFormat settings, GMC : No warppoints\r\nFormat settings, Matrix : Default (H.263)\r\nMuxing mode : Packed bitstream\r\nCodec ID : XVID\r\nCodec ID/Hint : XviD\r\nDuration : 2h 6mn\r\nBit rate : 1 887 Kbps\r\nWidth : 680 pixels\r\nHeight : 356 pixels\r\nDisplay aspect ratio : 1.910\r\nFrame rate : 25.000 fps\r\nColor space : YUV\r\nChroma subsampling : 4:2:0\r\nBit depth : 8 bits\r\nScan type : Progressive\r\nCompression mode : Lossy\r\nBits/(Pixel*Frame) : 0.312\r\nStream size : 1.66 GiB (93%)\r\nWriting library : XviD 67\r\n\r\nAudio\r\nID : 1\r\nFormat : MPEG Audio\r\nFormat version : Version 1\r\nFormat profile : Layer 3\r\nCodec ID : 55\r\nCodec ID/Hint : MP3\r\nDuration : 2h 6mn\r\nBit rate mode : Constant\r\nBit rate : 128 Kbps\r\nChannel(s) : 2 channels\r\nSampling rate : 44.1 KHz\r\nCompression mode : Lossy\r\nStream size : 116 MiB (6%)\r\nAlignment : Split accross interleaves\r\nInterleave, duration : 40 ms (1.00 video frame)\r\nInterleave, preload duratio : 500 ms\r\nWriting library : LAMELAME_MAJOR_VERSI","torrent":{"xt":"urn:btih:0ae0976367606a5c43fccc97f7019de3ad251fef","amp;dn":"Creed+%7B2015%7D+CAM+XVID+MP3-MURD3R+","amp;tr":["udp%3A%2F%2Ftracker.leechers-paradise.org%3A6969","udp%3A%2F%2Fzer0day.ch%3A1337","udp%3A%2F%2Fopen.demonii.com%3A1337","udp%3A%2F%2Ftracker.coppersurfer.tk%3A6969","udp%3A%2F%2Fexodus.desync.com%3A6969"],"infoHash":"0ae0976367606a5c43fccc97f7019de3ad251fef","infoHashBuffer":{"type":"Buffer","data":[10,224,151,99,103,96,106,92,67,252,204,151,247,1,157,227,173,37,31,239]},"announce":[],"urlList":[]}}